<?xml version="1.0" encoding="utf-8"?>
<!-- Generator: Adobe Illustrator 19.0.0, SVG Export Plug-In . SVG Version: 6.00 Build 0)  -->
<svg version="1.1" xmlns="http://www.w3.org/2000/svg" xmlns:xlink="http://www.w3.org/1999/xlink" x="0px" y="0px"
	 viewBox="0 0 283.5 283.5" style="enable-background:new 0 0 283.5 283.5;" xml:space="preserve">
<style type="text/css">
	.st0{display:none;}
	.st1{display:inline;}
	.st2{display:inline;fill:#FFFFFF;}
	.st3{display:inline;fill:none;stroke:#FFFFFF;stroke-width:7;stroke-miterlimit:10;}
	.st4{fill:#FFFFFF;}
	.st5{display:inline;fill:none;stroke:#000000;stroke-width:1.1303;stroke-miterlimit:10;}
	.st6{fill:none;stroke:#000000;stroke-width:20.3078;stroke-linecap:round;stroke-miterlimit:10;}
	.st7{fill:none;stroke:#000000;stroke-width:8;stroke-linecap:round;stroke-miterlimit:10;}
	.st8{fill:none;stroke:#000000;stroke-width:12;stroke-linecap:round;stroke-miterlimit:10;}
	.st9{display:inline;fill:none;stroke:#000000;stroke-width:16;stroke-linecap:round;stroke-miterlimit:10;}
	.st10{display:inline;fill:none;stroke:#000000;stroke-width:19;stroke-linecap:round;stroke-miterlimit:10;}
	.st11{display:inline;fill:none;stroke:#FFFFFF;stroke-width:23;stroke-miterlimit:10;}
	.st12{display:inline;stroke:#FFFFFF;stroke-width:3.1523;stroke-miterlimit:10;}
	.st13{display:inline;stroke:#FFFFFF;stroke-width:3;stroke-miterlimit:10;}
	.st14{display:inline;stroke:#FFFFFF;stroke-width:10;stroke-miterlimit:10;}
	.st15{display:inline;fill:none;stroke:#000000;stroke-width:20;stroke-miterlimit:10;}
	.st16{display:inline;fill:none;stroke:#000000;stroke-width:12;stroke-miterlimit:10;}
</style>
<g id="Calque_3">
</g>
<g id="Avance" class="st0">
	<path id="XMLID_5_" class="st1" d="M56.2,69.3c0-9.2,4-13,8.6-13c3.9,0,62.8,53.1,85.6,76.1c4.1,4.2,4.1,14.6-0.2,19
		c-22.5,22.8-79.9,74.9-85.4,74.9c-6.6,0-8.6-6.8-8.6-14.5"/>
	<path id="XMLID_7_" class="st1" d="M129.5,69.3c0-9.2,4-13,8.6-13c3.9,0,62.8,53.1,85.6,76.1c4.1,4.2,4.1,14.6-0.2,19
		c-22.5,22.8-79.9,74.9-85.4,74.9c-6.6,0-8.6-6.8-8.6-14.5"/>
</g>
<g id="Retour" class="st0">
	<path id="XMLID_8_" class="st1" d="M227,69.3c0-9.2-4-13-8.6-13c-3.9,0-62.8,53.1-85.6,76.1c-4.1,4.2-4.1,14.6,0.2,19
		c22.5,22.8,79.9,74.9,85.4,74.9c6.6,0,8.6-6.8,8.6-14.5"/>
	<path id="XMLID_6_" class="st1" d="M153.8,69.3c0-9.2-4-13-8.6-13c-3.9,0-62.8,53.1-85.6,76.1c-4.1,4.2-4.1,14.6,0.2,19
		c22.5,22.8,79.9,74.9,85.4,74.9c6.6,0,8.6-6.8,8.6-14.5"/>
</g>
<g id="Suivant" class="st0">
	<path id="XMLID_9_" class="st1" d="M56.2,69.3c0-9.2,5.3-13,11.3-13c5.1,0,82.4,53.1,112.3,76.1c5.4,4.2,5.4,14.6-0.2,19
		c-29.5,22.8-104.8,74.9-112.1,74.9c-8.7,0-11.3-6.8-11.3-14.5"/>
	<path id="XMLID_10_" class="st1" d="M199.5,226.3h-31.3c-3.2,0-5.8-2.6-5.8-5.8V62.1c0-3.2,2.6-5.8,5.8-5.8h31.3
		c3.2,0,5.8,2.6,5.8,5.8v158.4C205.3,223.7,202.7,226.3,199.5,226.3z"/>
</g>
<g id="Précédent" class="st0">
	<path id="XMLID_12_" class="st1" d="M205.3,69.3c0-9.2-5.3-13-11.3-13c-5.1,0-82.4,53.1-112.3,76.1c-5.4,4.2-5.4,14.6,0.2,19
		c29.5,22.8,104.8,74.9,112.1,74.9c8.7,0,11.3-6.8,11.3-14.5"/>
	<path id="XMLID_11_" class="st1" d="M62.1,226.3h31.3c3.2,0,5.8-2.6,5.8-5.8V62.1c0-3.2-2.6-5.8-5.8-5.8H62.1
		c-3.2,0-5.8,2.6-5.8,5.8v158.4C56.2,223.7,58.9,226.3,62.1,226.3z"/>
</g>
<g id="Sauvegarder" class="st0">
	<path id="XMLID_128_" class="st1" d="M214.8,226.3H68.2c-6.6,0-12-5.4-12-12v-146c0-6.6,5.4-12,12-12h73.3h73.3c6.6,0,12,5.4,12,12
		v73v73C226.8,220.9,221.4,226.3,214.8,226.3z"/>
	<polygon id="XMLID_131_" class="st2" points="269.4,51.4 184.1,51.4 269.4,136.4 	"/>
	<path id="XMLID_130_" class="st2" d="M156.2,118.9h-51.9c-6.6,0-12-5.4-12-12V63.4c0-6.6,5.4-12,12-12h51.9c6.6,0,12,5.4,12,12
		v43.5C168.2,113.5,162.8,118.9,156.2,118.9z"/>
	<path id="XMLID_132_" class="st2" d="M191.2,175H92.3c-2.8,0-5-2.3-5-5v-14c0-2.8,2.3-5,5-5h98.9c2.8,0,5,2.3,5,5v14
		C196.2,172.7,193.9,175,191.2,175z"/>
	<path id="XMLID_134_" class="st2" d="M191.2,208.2H92.3c-2.8,0-5-2.3-5-5v-14c0-2.8,2.3-5,5-5h98.9c2.8,0,5,2.3,5,5v14
		C196.2,205.9,193.9,208.2,191.2,208.2z"/>
</g>
<g id="Effacer" class="st0">
	<path id="XMLID_116_" class="st1" d="M56.4,219.3c-0.7,4.1,2,7.5,6.2,7.5h70.1c4.1,0,8.1-3.4,8.8-7.5l27.3-155.1
		c0.7-4.1-2-7.5-6.2-7.5H92.5c-4.1,0-8.1,3.4-8.8,7.5"/>
	<polygon id="XMLID_110_" class="st1" points="224.2,161 163.9,161 166.5,141.3 226.8,141.3 	"/>
	<polygon id="XMLID_112_" class="st1" points="224,191.3 160.7,191.3 163.4,171.6 226.8,171.6 	"/>
	<polygon id="XMLID_115_" class="st1" points="223.8,219.8 154.8,219.8 157.8,200 226.8,200 	"/>
	<path id="XMLID_108_" class="st2" d="M126.5,212.2h-53c-2.8,0-4.8-2.3-4.3-5.2l9.9-56.3h63.4l-9.9,56.3
		C132.1,209.8,129.3,212.2,126.5,212.2z"/>
</g>
<g id="Fermer" class="st0">
	<path id="XMLID_15_" class="st1" d="M224,197.6l-27,27c-2.3,2.3-6,2.3-8.2,0L57.4,93.2c-2.3-2.3-2.3-6,0-8.2l27-27
		c2.3-2.3,6-2.3,8.2,0L224,189.3C226.3,191.6,226.3,195.3,224,197.6z"/>
	<path id="XMLID_13_" class="st1" d="M57.9,197.6l27,27c2.3,2.3,6,2.3,8.2,0L224.5,93.2c2.3-2.3,2.3-6,0-8.2l-27-27
		c-2.3-2.3-6-2.3-8.2,0L57.9,189.3C55.7,191.6,55.7,195.3,57.9,197.6z"/>
</g>
<g id="Ouvrir" class="st0">
	<path id="XMLID_91_" class="st1" d="M133,175.1l-70.5-70.5c-4.7-4.7-4.7-12.3,0-17L133,17.1c4.7-4.7,12.3-4.7,17,0l70.5,70.5
		c4.7,4.7,4.7,12.3,0,17L150,175.1C145.3,179.7,137.7,179.7,133,175.1z"/>
	<path id="XMLID_80_" class="st1" d="M217.4,226.3H65.6c-5.2,0-9.4-4.2-9.4-9.4V102.6c0-5.2,4.2-9.4,9.4-9.4h151.7
		c5.2,0,9.4,4.2,9.4,9.4v114.3C226.8,222.1,222.5,226.3,217.4,226.3z"/>
	<path id="XMLID_89_" class="st3" d="M226.5,93.2c0,3.4-53.1,54.9-76.1,74.8c-4.2,3.6-14.6,3.6-19-0.1
		C108.6,148.2,56.5,98,56.5,93.2"/>
	<g id="XMLID_93_" class="st1">
		<path id="XMLID_114_" class="st4" d="M142.2,66.4c0,0-0.8,1.2-2.2,3.4c-0.7,1.1-1.5,2.4-2.4,3.9c-0.9,1.5-2,3.2-3.1,5.1
			c-1.1,1.9-2.2,3.9-3.4,6c-1.1,2.2-2.3,4.5-3.3,6.9c-1,2.4-2,4.9-2.7,7.5c-0.7,2.6-1.2,5.3-1.5,8c-0.2,2.7-0.2,5.5,0.2,8.1
			c0.4,2.7,1.1,5.3,1.9,7.8c0.9,2.5,2,4.8,3.2,7c0.6,1.1,1.3,2.1,1.9,3.1c0.7,1,1.3,1.9,1.9,2.8c0.7,0.9,1.3,1.7,1.9,2.5
			c0.6,0.8,1.2,1.5,1.8,2.2c1.1,1.4,2.2,2.5,3.1,3.5c1.8,1.9,2.8,2.9,2.8,2.9s-1.2-0.9-3.2-2.5c-1-0.8-2.3-1.8-3.6-3
			c-0.7-0.6-1.4-1.3-2.2-1.9c-0.7-0.7-1.5-1.5-2.3-2.3c-0.8-0.8-1.6-1.7-2.4-2.6c-0.8-0.9-1.6-1.9-2.4-2.9c-1.6-2.1-3.2-4.4-4.6-7
			c-1.4-2.6-2.6-5.4-3.5-8.4c-0.9-3-1.4-6.2-1.6-9.4c-0.2-3.2,0-6.4,0.3-9.5c0.4-3.1,1-6.1,1.8-9c0.7-2.9,1.6-5.5,2.5-8.1
			c0.9-2.5,1.8-4.9,2.6-7c0.8-2.1,1.7-4.1,2.4-5.8c0.7-1.7,1.4-3.2,1.9-4.4c1.1-2.4,1.7-3.7,1.7-3.7L142.2,66.4z"/>
	</g>
	<path id="XMLID_92_" class="st2" d="M117.8,64.6c-1.6-0.8-1.8-2.1-1.3-3.1c0.4-0.9,16.6-9.8,23.3-13c1.2-0.6,3,0.3,3.3,1.7
		c1.4,7.2,3.9,25,3.3,26.3c-0.8,1.5-2.2,1.4-3.5,0.7"/>
</g>
<g id="Fichier" class="st0">
	<path id="XMLID_17_" class="st1" d="M198.8,226.3H84.2c-6.6,0-12-5.4-12-12v-146c0-6.6,5.4-12,12-12h114.6c6.6,0,12,5.4,12,12v146
		C210.8,220.9,205.4,226.3,198.8,226.3z"/>
	<polygon id="XMLID_71_" class="st2" points="154.4,39.5 239.6,124.6 239.6,39.5 	"/>
	<path id="XMLID_20_" class="st2" d="M244,94h-58.6c-6.6,0-12-5.4-12-12V6c0-6.6,5.4-12,12-12H244c6.6,0,12,5.4,12,12v76
		C256,88.6,250.6,94,244,94z"/>
	<line id="XMLID_73_" class="st5" x1="170.7" y1="56.8" x2="209.9" y2="95.9"/>
	<path id="XMLID_72_" class="st2" d="M182.2,128H95.7c-3.1,0-5.6-2.5-5.6-5.6v-4.8c0-3.1,2.5-5.6,5.6-5.6h86.5
		c3.1,0,5.6,2.5,5.6,5.6v4.8C187.8,125.5,185.3,128,182.2,128z"/>
	<path id="XMLID_75_" class="st2" d="M182.2,166.5H95.7c-3.1,0-5.6-2.5-5.6-5.6v-4.8c0-3.1,2.5-5.6,5.6-5.6h86.5
		c3.1,0,5.6,2.5,5.6,5.6v4.8C187.8,164,185.3,166.5,182.2,166.5z"/>
	<path id="XMLID_76_" class="st2" d="M182.2,204.2H95.7c-3.1,0-5.6-2.5-5.6-5.6v-4.8c0-3.1,2.5-5.6,5.6-5.6h86.5
		c3.1,0,5.6,2.5,5.6,5.6v4.8C187.8,201.7,185.3,204.2,182.2,204.2z"/>
</g>
<g id="Archives" class="st0">
	<g id="XMLID_83_" class="st1">
		<path id="XMLID_88_" d="M68.2,209.3c-7.4,0-13.5-6.1-13.5-13.5V77.1c0-7.4,6.1-13.5,13.5-13.5h142.9c7.4,0,13.5,6.1,13.5,13.5
			v118.6c0,7.4-6.1,13.5-13.5,13.5H68.2z"/>
		<path id="XMLID_85_" class="st4" d="M211.1,65.1c6.6,0,12,5.4,12,12v118.6c0,6.6-5.4,12-12,12H68.2c-6.6,0-12-5.4-12-12V77.1
			c0-6.6,5.4-12,12-12H211.1 M211.1,62.1H68.2c-8.3,0-15,6.7-15,15v118.6c0,8.3,6.7,15,15,15h142.9c8.3,0,15-6.7,15-15V77.1
			C226.1,68.9,219.4,62.1,211.1,62.1L211.1,62.1z"/>
	</g>
	<g id="XMLID_82_" class="st1">
		<path id="XMLID_103_" d="M68.2,215.5c-7.4,0-13.5-6.1-13.5-13.5V83.3c0-7.4,6.1-13.5,13.5-13.5h142.9c7.4,0,13.5,6.1,13.5,13.5
			V202c0,7.4-6.1,13.5-13.5,13.5H68.2z"/>
		<path id="XMLID_95_" class="st4" d="M211.1,71.3c6.6,0,12,5.4,12,12V202c0,6.6-5.4,12-12,12H68.2c-6.6,0-12-5.4-12-12V83.3
			c0-6.6,5.4-12,12-12H211.1 M211.1,68.3H68.2c-8.3,0-15,6.7-15,15V202c0,8.3,6.7,15,15,15h142.9c8.3,0,15-6.7,15-15V83.3
			C226.1,75.1,219.4,68.3,211.1,68.3L211.1,68.3z"/>
	</g>
	<g id="XMLID_81_" class="st1">
		<path id="XMLID_107_" d="M68.2,221.5c-7.4,0-13.5-6.1-13.5-13.5V89.3c0-7.4,6.1-13.5,13.5-13.5h142.9c7.4,0,13.5,6.1,13.5,13.5
			V208c0,7.4-6.1,13.5-13.5,13.5H68.2z"/>
		<path id="XMLID_104_" class="st4" d="M211.1,77.3c6.6,0,12,5.4,12,12V208c0,6.6-5.4,12-12,12H68.2c-6.6,0-12-5.4-12-12V89.3
			c0-6.6,5.4-12,12-12H211.1 M211.1,74.3H68.2c-8.3,0-15,6.7-15,15V208c0,8.3,6.7,15,15,15h142.9c8.3,0,15-6.7,15-15V89.3
			C226.1,81.1,219.4,74.3,211.1,74.3L211.1,74.3z"/>
	</g>
	<g id="XMLID_74_" class="st1">
		<path id="XMLID_101_" d="M68.2,227.8c-7.4,0-13.5-6.1-13.5-13.5V95.7c0-7.4,6.1-13.5,13.5-13.5h146.5c7.4,0,13.5,6.1,13.5,13.5
			v118.6c0,7.4-6.1,13.5-13.5,13.5H68.2z"/>
		<path id="XMLID_98_" class="st4" d="M214.8,83.7c6.6,0,12,5.4,12,12v118.6c0,6.6-5.4,12-12,12H68.2c-6.6,0-12-5.4-12-12V95.7
			c0-6.6,5.4-12,12-12H214.8 M214.8,80.7H68.2c-8.3,0-15,6.7-15,15v118.6c0,8.3,6.7,15,15,15h146.5c8.3,0,15-6.7,15-15V95.7
			C229.8,87.4,223,80.7,214.8,80.7L214.8,80.7z"/>
	</g>
	<path id="XMLID_77_" class="st1" d="M214.8,121.3h-61.3c-6.6,0-12-5.4-12-12V71.4c0-6.6,5.4-12,12-12h61.3c6.6,0,12,5.4,12,12v37.9
		C226.8,115.9,221.4,121.3,214.8,121.3z"/>
	<circle id="XMLID_79_" class="st2" cx="141.5" cy="139.8" r="19.4"/>
	<path id="XMLID_78_" class="st2" d="M145.8,199h-8.5c-2.5,0-4.6-2.1-4.6-4.6v-36.3c0-2.5,2.1-4.6,4.6-4.6h8.5
		c2.5,0,4.6,2.1,4.6,4.6v36.3C150.4,196.9,148.3,199,145.8,199z"/>
</g>
<g id="Jouer" class="st0">
	<path id="XMLID_57_" class="st1" d="M199.9,226.3H83c-14.7,0-26.8-12-26.8-26.8V83c0-14.7,12-26.8,26.8-26.8h116.9
		c14.7,0,26.8,12,26.8,26.8v116.5C226.6,214.3,214.6,226.3,199.9,226.3z"/>
	<circle id="XMLID_59_" class="st2" cx="95.6" cy="91.2" r="22.9"/>
	<circle id="XMLID_61_" class="st2" cx="190.8" cy="190.6" r="22.9"/>
	<circle id="XMLID_62_" class="st2" cx="141.4" cy="141.3" r="22.9"/>
</g>
<g id="Ecouter">
	<path id="XMLID_117_" class="st6" d="M129.6,117.6c-11.3-26.5,17.7-51,50.5-51s44.1,49.2,28.4,69.2c-25,31.9-9.8,50.5-16.2,66.1
		c-9.7,23.7-44.1,14.7-47.1-1.4"/>
	<path id="XMLID_121_" class="st7" d="M150.2,111.6c-2.1-15,17.7-25.1,28.4-21.9s15.5,14.4,16.1,24.6s-22.6,36.9-22.3,46.5"/>
	<path id="XMLID_122_" class="st7" d="M66.9,133.2c23.8,9.8,36.3,46.8,21.4,73.4"/>
	<path id="XMLID_120_" class="st8" d="M84.5,117.9c30.2,12.4,46,59.2,27.1,92.9"/>
</g>
<g id="Musique" class="st0">
	<ellipse id="XMLID_48_" class="st1" cx="89.6" cy="193.3" rx="33.4" ry="33"/>
	<path id="XMLID_56_" class="st1" d="M117.7,201.3H109c-2.9,0-5.3-2.4-5.3-5.3V61.6c0-2.9,2.4-5.3,5.3-5.3h8.6
		c2.9,0,5.3,2.4,5.3,5.3v134.3C123,198.9,120.6,201.3,117.7,201.3z"/>
	<ellipse id="XMLID_136_" class="st1" cx="193.4" cy="193.3" rx="33.4" ry="33"/>
	<path id="XMLID_135_" class="st1" d="M221.4,201.3h-8.6c-2.9,0-5.3-2.4-5.3-5.3V61.6c0-2.9,2.4-5.3,5.3-5.3h8.6
		c2.9,0,5.3,2.4,5.3,5.3V196C226.8,198.9,224.4,201.3,221.4,201.3z"/>
	<path id="XMLID_58_" class="st1" d="M214.8,100.6h-99.1c-6.6,0-12-5.4-12-12V68.3c0-6.6,5.4-12,12-12h99.1c6.6,0,12,5.4,12,12v20.3
		C226.8,95.2,221.4,100.6,214.8,100.6z"/>
</g>
<g id="Video" class="st0">
	<path id="XMLID_16_" class="st1" d="M226.8,86.7L59.6,112.4l-3.2-20.6c-1-6.5,3.5-12.7,10-13.7l143.4-22c6.5-1,12.7,3.5,13.7,10
		L226.8,86.7z"/>
	<path id="XMLID_14_" class="st1" d="M214.2,226.3H72.3c-6.9,0-12.5-5.6-12.5-12.5V112.4h167v101.4
		C226.8,220.7,221.2,226.3,214.2,226.3z"/>
	<polygon id="XMLID_18_" class="st2" points="222.2,88.4 188.3,93.3 172.8,61.1 206.7,56.2 	"/>
	<polygon id="XMLID_21_" class="st2" points="167.4,96.4 133.4,101.3 117.9,69.2 151.9,64.3 	"/>
	<polygon id="XMLID_19_" class="st2" points="112.8,105.3 78.9,110.2 63.4,78.1 97.3,73.2 	"/>
</g>
<g id="Audio" class="st0">
	<path id="XMLID_109_" class="st1" d="M103.7,183.9H68.2c-6.6,0-12-5.4-12-12v-60.7c0-6.6,5.4-12,12-12h35.5c6.6,0,12,5.4,12,12
		v60.7C115.7,178.5,110.3,183.9,103.7,183.9z"/>
	<path id="XMLID_111_" class="st1" d="M140.8,215l-54.4-36.5c-5.7,0-10.3-4.7-10.3-10.3v-52.3c0-5.7,4.7-10.3,10.3-10.3l54.4-37
		c5.7,0,10.3,4.7,10.3,10.3v125.8C151.1,210.3,146.4,215,140.8,215z"/>
	<path id="XMLID_118_" class="st9" d="M169.1,103.5c20.6,15.5,23.4,54.4,2.3,76.4"/>
	<path id="XMLID_119_" class="st10" d="M195,93.3c26.1,19.6,29.7,68.9,3,96.8"/>
</g>
<g id="Texte" class="st0">
	<g id="XMLID_68_" class="st1">
		<path id="XMLID_69_" d="M217.7,56.5v45.9h-4.5c-2.7-10.6-5.6-18.2-8.9-22.8s-7.7-8.3-13.4-11.1c-3.2-1.5-8.7-2.2-16.6-2.2h-12.6
			V197c0,8.7,0.5,14.1,1.4,16.2c1,2.2,2.8,4.1,5.6,5.7c2.8,1.6,6.6,2.4,11.4,2.4h5.6v4.6H97.1v-4.6h5.6c4.9,0,8.9-0.9,11.9-2.6
			c2.2-1.2,3.9-3.2,5.1-6c0.9-2,1.4-7.2,1.4-15.8V66.2h-12.2c-11.4,0-19.7,2.4-24.9,7.2c-7.2,6.8-11.8,16.4-13.8,28.9h-4.8V56.5
			H217.7z"/>
	</g>
</g>
<g id="Télécharger" class="st0">
	<path id="XMLID_26_" class="st1" d="M105.5,98.4c-4.5,0-6.4,2.6-6.4,5.6c0,2.5,26.1,40.4,37.4,55.1c2.1,2.7,7.2,2.6,9.3-0.1
		c11.2-14.5,36.8-51.4,36.8-55c0-4.3-3.3-5.6-7.1-5.6"/>
	<path id="XMLID_22_" class="st1" d="M166,116.8h-48.6c-2.5,0-4.6-2.1-4.6-4.6V60.8c0-2.5,2.1-4.6,4.6-4.6H166
		c2.5,0,4.6,2.1,4.6,4.6v51.4C170.5,114.7,168.5,116.8,166,116.8z"/>
	<path id="XMLID_25_" class="st1" d="M56.2,221.9v-22.5c0-2.4,2-4.4,4.4-4.4h161.7c2.4,0,4.4,2,4.4,4.4v22.5c0,2.4-2,4.4-4.4,4.4
		H60.7C58.2,226.3,56.2,224.3,56.2,221.9z"/>
	<path id="XMLID_23_" class="st1" d="M87.6,226.3h-27c-2.4,0-4.4-2-4.4-4.4V169c0-2.4,2-4.4,4.4-4.4h27c2.4,0,4.4,2,4.4,4.4v52.9
		C92.1,224.3,90.1,226.3,87.6,226.3z"/>
	<path id="XMLID_24_" class="st1" d="M222.3,226.3h-27c-2.4,0-4.4-2-4.4-4.4V169c0-2.4,2-4.4,4.4-4.4h27c2.4,0,4.4,2,4.4,4.4v52.9
		C226.8,224.3,224.8,226.3,222.3,226.3z"/>
</g>
<g id="Rechercher" class="st0">
	<path id="XMLID_30_" class="st1" d="M138.8,164.6l-60.1,60.1c-2.2,2.2-5.9,2.2-8.1,0l-12.7-12.7c-2.2-2.2-2.2-5.9,0-8.1l60.1-60.1
		c2.2-2.2,5.9-2.2,8.1,0l12.7,12.7C141,158.7,141,162.3,138.8,164.6z"/>
	<g id="XMLID_29_" class="st1">
		<path id="XMLID_43_" d="M163.7,79.3c22.1,0,40.1,18,40.1,40.1s-18,40.1-40.1,40.1s-40.1-18-40.1-40.1S141.6,79.3,163.7,79.3
			 M163.7,56.3c-34.8,0-63.1,28.2-63.1,63.1s28.2,63.1,63.1,63.1s63.1-28.2,63.1-63.1S198.5,56.3,163.7,56.3L163.7,56.3z"/>
	</g>
</g>
<g id="Zoomer" class="st0">
	<path id="XMLID_35_" class="st1" d="M146.7,115.6h34.5c1.3,0,2.4,1.1,2.4,2.4v2.3c0,1.3-1.1,2.4-2.4,2.4h-34.5
		c-1.3,0-2.4-1.1-2.4-2.4V118C144.2,116.7,145.3,115.6,146.7,115.6z"/>
	<path id="XMLID_34_" class="st1" d="M167.4,102.1v34.5c0,1.3-1.1,2.4-2.4,2.4h-2.3c-1.3,0-2.4-1.1-2.4-2.4v-34.5
		c0-1.3,1.1-2.4,2.4-2.4h2.3C166.3,99.7,167.4,100.8,167.4,102.1z"/>
	<path id="XMLID_32_" class="st1" d="M139,164.6l-60.1,60.1c-2.2,2.2-5.9,2.2-8.1,0L58.1,212c-2.2-2.2-2.2-5.9,0-8.1l60.1-60.1
		c2.2-2.2,5.9-2.2,8.1,0l12.7,12.7C141.2,158.7,141.2,162.4,139,164.6z"/>
	<g id="XMLID_31_" class="st1">
		<path id="XMLID_49_" d="M163.9,79.3c22.1,0,40.1,18,40.1,40.1s-18,40.1-40.1,40.1s-40.1-18-40.1-40.1S141.8,79.3,163.9,79.3
			 M163.9,56.3c-34.8,0-63.1,28.2-63.1,63.1s28.2,63.1,63.1,63.1s63.1-28.2,63.1-63.1S198.7,56.3,163.9,56.3L163.9,56.3z"/>
	</g>
</g>
<g id="Discussion" class="st0">
	<path id="XMLID_40_" class="st1" d="M217.8,172.9c0-1.6-0.5-2.2-1.1-2.2c-0.5,0-8.2,9.1-11.2,13.1c-0.5,0.7-0.5,2.5,0,3.3
		c2.9,3.9,10.4,12.9,11.2,12.9c0.9,0,1.1-1.2,1.1-2.5"/>
	<path id="XMLID_37_" class="st1" d="M71.5,93.4c0-1.6,0.5-2.2,1.1-2.2c0.5,0,8.2,9.1,11.2,13.1c0.5,0.7,0.5,2.5,0,3.3
		c-2.9,3.9-10.4,12.9-11.2,12.9c-0.9,0-1.1-1.2-1.1-2.5"/>
	<path id="XMLID_36_" class="st1" d="M125.1,189.9h89.7c6.6,0,12-5.4,12-12v-24.6c0-6.6-5.4-12-12-12h-89.7c-6.6,0-12,5.4-12,12
		v24.6C113.1,184.5,118.5,189.9,125.1,189.9z"/>
	<path id="XMLID_33_" class="st1" d="M180.4,110H68.2c-6.6,0-12-5.4-12-12V68.3c0-6.6,5.4-12,12-12h112.2c6.6,0,12,5.4,12,12V98
		C192.4,104.6,187,110,180.4,110z"/>
</g>
<g id="Message" class="st0">
	<path id="XMLID_38_" class="st1" d="M214.8,226.3H68.2c-6.6,0-12-5.4-12-12V92c0-6.6,5.4-12,12-12h146.5c6.6,0,12,5.4,12,12v122.3
		C226.8,220.9,221.4,226.3,214.8,226.3z"/>
	<path id="XMLID_41_" class="st11" d="M213.5,74.3c9.2,0,13,3.5,13,7.5c0,3.4-53.1,54.9-76.1,74.8c-4.2,3.6-14.6,3.6-19-0.1
		c-22.8-19.7-74.9-69.8-74.9-74.7c0-5.8,6.8-7.5,14.5-7.5"/>
</g>
<g id="Groupe" class="st0">
	<circle id="XMLID_55_" class="st12" cx="185.2" cy="83.2" r="25.2"/>
	<path id="XMLID_54_" class="st13" d="M215.2,194.8h-61.5c-6.6,0-12-5.4-12-12v-61c0-6.6,5.4-12,12-12h61.5c6.6,0,12,5.4,12,12v61
		C227.2,189.4,221.8,194.8,215.2,194.8z"/>
	<circle id="XMLID_53_" class="st12" cx="141.7" cy="99.3" r="25.2"/>
	<path id="XMLID_52_" class="st13" d="M173.2,211.8h-61.5c-6.6,0-12-5.4-12-12v-61c0-6.6,5.4-12,12-12h61.5c6.6,0,12,5.4,12,12v61
		C185.2,206.4,179.8,211.8,173.2,211.8z"/>
	<circle id="XMLID_47_" class="st12" cx="99" cy="114.6" r="25.2"/>
	<path id="XMLID_46_" class="st13" d="M129.7,226.3H68.2c-6.6,0-12-5.4-12-12v-61c0-6.6,5.4-12,12-12h61.5c6.6,0,12,5.4,12,12v61
		C141.7,220.9,136.3,226.3,129.7,226.3z"/>
</g>
<g id="Profil" class="st0">
	<path id="XMLID_66_" class="st1" d="M226.8,226.3H56.2v-66.8c0-6.6,5.4-12,12-12h146.5c6.6,0,12,5.4,12,12V226.3z"/>
	<ellipse id="XMLID_67_" class="st14" cx="141.5" cy="102.5" rx="49.9" ry="51.3"/>
</g>
<g id="Compte" class="st0">
	<path id="XMLID_60_" class="st1" d="M187.3,226.3H96.1c-6.6,0-12-5.4-12-12v-91.2c0-6.6,5.4-12,12-12h91.2c6.6,0,12,5.4,12,12v91.2
		C199.3,220.9,193.9,226.3,187.3,226.3z"/>
	<circle id="XMLID_63_" class="st2" cx="141.7" cy="153.6" r="19.4"/>
	<ellipse id="XMLID_65_" class="st15" cx="141.7" cy="134.2" rx="42.9" ry="59.2"/>
	<path id="XMLID_64_" class="st2" d="M146,212.8h-8.5c-2.5,0-4.6-2.1-4.6-4.6v-36.3c0-2.5,2.1-4.6,4.6-4.6h8.5
		c2.5,0,4.6,2.1,4.6,4.6v36.3C150.6,210.8,148.5,212.8,146,212.8z"/>
</g>
<g id="Ordonner" class="st0">
	<path id="XMLID_123_" class="st1" d="M214.8,107.3H119c-6.6,0-12-5.4-12-12v-0.7c0-6.6,5.4-12,12-12h95.7c6.6,0,12,5.4,12,12v0.7
		C226.8,101.9,221.4,107.3,214.8,107.3z"/>
	<path id="XMLID_125_" class="st1" d="M214.8,153.7H119c-6.6,0-12-5.4-12-12V141c0-6.6,5.4-12,12-12h95.7c6.6,0,12,5.4,12,12v0.7
		C226.8,148.3,221.4,153.7,214.8,153.7z"/>
	<path id="XMLID_126_" class="st1" d="M214.8,200.5H119c-6.6,0-12-5.4-12-12v-0.7c0-6.6,5.4-12,12-12h95.7c6.6,0,12,5.4,12,12v0.7
		C226.8,195.1,221.4,200.5,214.8,200.5z"/>
	<path id="XMLID_127_" class="st16" d="M81.2,184.6c-17-37.1-18.5-61.8,0-82.4"/>
	<path id="XMLID_124_" class="st1" d="M67,101c-1-1.3-0.7-2.4,0.1-3c0.7-0.6,17.1-1.9,23.8-2.1c1.2,0,2.4,1.4,2.1,2.6
		c-1.5,6.4-5.9,21.9-6.9,22.7c-1.2,1-2.3,0.3-3.2-0.7"/>
	<path id="XMLID_129_" class="st1" d="M86.3,164.7c1.3-1,2.4-0.7,3,0.2c0.5,0.7,1.5,17.2,1.5,23.8c0,1.2-1.5,2.3-2.7,2
		c-6.4-1.6-21.7-6.5-22.5-7.5c-0.9-1.2-0.3-2.3,0.8-3.1"/>
</g>
</svg>
