<?xml version="1.0" encoding="utf-8"?>
<!-- Generator: Adobe Illustrator 19.0.0, SVG Export Plug-In . SVG Version: 6.00 Build 0)  -->
<svg version="1.1" xmlns="http://www.w3.org/2000/svg" xmlns:xlink="http://www.w3.org/1999/xlink" x="0px" y="0px"
	 viewBox="0 0 283.5 283.5" style="enable-background:new 0 0 283.5 283.5;" xml:space="preserve">
<style type="text/css">
	.st0{display:none;}
	.st1{display:inline;}
	.st2{display:inline;fill:#FFFFFF;}
	.st3{display:inline;fill:none;}
	.st4{display:inline;fill:none;stroke:#FFFFFF;stroke-width:10;stroke-miterlimit:10;}
	.st5{display:inline;stroke:#FFFFFF;stroke-width:3.1523;stroke-miterlimit:10;}
	.st6{display:inline;stroke:#FFFFFF;stroke-width:3;stroke-miterlimit:10;}
	.st7{display:inline;stroke:#FFFFFF;stroke-width:10;stroke-miterlimit:10;}
	.st8{display:inline;fill:none;stroke:#000000;stroke-width:20;stroke-miterlimit:10;}
</style>
<g id="Calque_3">
</g>
<g id="Avance" class="st0">
	<path id="XMLID_5_" class="st1" d="M56.2,69.3c0-9.2,4-13,8.6-13c3.9,0,62.8,53.1,85.6,76.1c4.1,4.2,4.1,14.6-0.2,19
		c-22.5,22.8-79.9,74.9-85.4,74.9c-6.6,0-8.6-6.8-8.6-14.5"/>
	<path id="XMLID_7_" class="st1" d="M129.5,69.3c0-9.2,4-13,8.6-13c3.9,0,62.8,53.1,85.6,76.1c4.1,4.2,4.1,14.6-0.2,19
		c-22.5,22.8-79.9,74.9-85.4,74.9c-6.6,0-8.6-6.8-8.6-14.5"/>
</g>
<g id="Retour" class="st0">
	<path id="XMLID_8_" class="st1" d="M227,69.3c0-9.2-4-13-8.6-13c-3.9,0-62.8,53.1-85.6,76.1c-4.1,4.2-4.1,14.6,0.2,19
		c22.5,22.8,79.9,74.9,85.4,74.9c6.6,0,8.6-6.8,8.6-14.5"/>
	<path id="XMLID_6_" class="st1" d="M153.8,69.3c0-9.2-4-13-8.6-13c-3.9,0-62.8,53.1-85.6,76.1c-4.1,4.2-4.1,14.6,0.2,19
		c22.5,22.8,79.9,74.9,85.4,74.9c6.6,0,8.6-6.8,8.6-14.5"/>
</g>
<g id="Suivant">
	<path id="XMLID_9_" d="M56.2,69.3c0-9.2,5.3-13,11.3-13c5.1,0,82.4,53.1,112.3,76.1c5.4,4.2,5.4,14.6-0.2,19
		c-29.5,22.8-104.8,74.9-112.1,74.9c-8.7,0-11.3-6.8-11.3-14.5"/>
	<path id="XMLID_10_" d="M199.5,226.3h-31.3c-3.2,0-5.8-2.6-5.8-5.8V62.1c0-3.2,2.6-5.8,5.8-5.8h31.3c3.2,0,5.8,2.6,5.8,5.8v158.4
		C205.3,223.7,202.7,226.3,199.5,226.3z"/>
</g>
<g id="Précédent" class="st0">
	<path id="XMLID_12_" class="st1" d="M205.3,69.3c0-9.2-5.3-13-11.3-13c-5.1,0-82.4,53.1-112.3,76.1c-5.4,4.2-5.4,14.6,0.2,19
		c29.5,22.8,104.8,74.9,112.1,74.9c8.7,0,11.3-6.8,11.3-14.5"/>
	<path id="XMLID_11_" class="st1" d="M62.1,226.3h31.3c3.2,0,5.8-2.6,5.8-5.8V62.1c0-3.2-2.6-5.8-5.8-5.8H62.1
		c-3.2,0-5.8,2.6-5.8,5.8v158.4C56.2,223.7,58.9,226.3,62.1,226.3z"/>
</g>
<g id="Sauvegarder">
</g>
<g id="Effacer">
</g>
<g id="Fermer" class="st0">
	<path id="XMLID_15_" class="st1" d="M224,197.6l-27,27c-2.3,2.3-6,2.3-8.2,0L57.4,93.2c-2.3-2.3-2.3-6,0-8.2l27-27
		c2.3-2.3,6-2.3,8.2,0L224,189.3C226.3,191.6,226.3,195.3,224,197.6z"/>
	<path id="XMLID_13_" class="st1" d="M57.9,197.6l27,27c2.3,2.3,6,2.3,8.2,0L224.5,93.2c2.3-2.3,2.3-6,0-8.2l-27-27
		c-2.3-2.3-6-2.3-8.2,0L57.9,189.3C55.7,191.6,55.7,195.3,57.9,197.6z"/>
</g>
<g id="Ouvrir">
</g>
<g id="Fichier">
</g>
<g id="Archives">
</g>
<g id="Jouer" class="st0">
	<path id="XMLID_57_" class="st1" d="M199.9,226.3H83c-14.7,0-26.8-12-26.8-26.8V83c0-14.7,12-26.8,26.8-26.8h116.9
		c14.7,0,26.8,12,26.8,26.8v116.5C226.6,214.3,214.6,226.3,199.9,226.3z"/>
	<circle id="XMLID_59_" class="st2" cx="95.6" cy="91.2" r="22.9"/>
	<circle id="XMLID_61_" class="st2" cx="190.8" cy="190.6" r="22.9"/>
	<circle id="XMLID_62_" class="st2" cx="141.4" cy="141.3" r="22.9"/>
</g>
<g id="Ecouter">
</g>
<g id="Musique" class="st0">
	<ellipse id="XMLID_48_" class="st1" cx="120.8" cy="193.3" rx="33.4" ry="33"/>
	<path id="XMLID_56_" class="st1" d="M148.9,201.3h-8.6c-2.9,0-5.3-2.4-5.3-5.3V34.4c0-2.9,2.4-5.3,5.3-5.3h8.6
		c2.9,0,5.3,2.4,5.3,5.3v161.5C154.2,198.9,151.8,201.3,148.9,201.3z"/>
	<path id="XMLID_58_" class="st1" d="M153.7,31C165.6,49.2,172,60,194,65.5c21.9,5.6,11,35,8.1,42.9c-7-22.5-20.2-19.1-30.2-23.2
		c-9.9-4.1-22.1-22.3-22-40.2C149.8,34.5,153.7,31,153.7,31z"/>
</g>
<g id="Video" class="st0">
	<path id="XMLID_16_" class="st1" d="M226.8,86.7L59.6,112.4l-3.2-20.6c-1-6.5,3.5-12.7,10-13.7l143.4-22c6.5-1,12.7,3.5,13.7,10
		L226.8,86.7z"/>
	<path id="XMLID_14_" class="st1" d="M214.2,226.3H72.3c-6.9,0-12.5-5.6-12.5-12.5V112.4h167v101.4
		C226.8,220.7,221.2,226.3,214.2,226.3z"/>
	<polygon id="XMLID_18_" class="st2" points="222.2,88.4 188.3,93.3 172.8,61.1 206.7,56.2 	"/>
	<polygon id="XMLID_21_" class="st2" points="167.4,96.4 133.4,101.3 117.9,69.2 151.9,64.3 	"/>
	<polygon id="XMLID_19_" class="st2" points="112.8,105.3 78.9,110.2 63.4,78.1 97.3,73.2 	"/>
</g>
<g id="Audio">
</g>
<g id="Texte" class="st0">
	<rect id="XMLID_20_" x="56.2" y="56.3" class="st3" width="170.5" height="170"/>
</g>
<g id="Télécharger" class="st0">
	<path id="XMLID_26_" class="st1" d="M105.5,98.4c-4.5,0-6.4,2.6-6.4,5.6c0,2.5,26.1,40.4,37.4,55.1c2.1,2.7,7.2,2.6,9.3-0.1
		c11.2-14.5,36.8-51.4,36.8-55c0-4.3-3.3-5.6-7.1-5.6"/>
	<path id="XMLID_22_" class="st1" d="M166,116.8h-48.6c-2.5,0-4.6-2.1-4.6-4.6V60.8c0-2.5,2.1-4.6,4.6-4.6H166
		c2.5,0,4.6,2.1,4.6,4.6v51.4C170.5,114.7,168.5,116.8,166,116.8z"/>
	<path id="XMLID_25_" class="st1" d="M56.2,221.9v-22.5c0-2.4,2-4.4,4.4-4.4h161.7c2.4,0,4.4,2,4.4,4.4v22.5c0,2.4-2,4.4-4.4,4.4
		H60.7C58.2,226.3,56.2,224.3,56.2,221.9z"/>
	<path id="XMLID_23_" class="st1" d="M87.6,226.3h-27c-2.4,0-4.4-2-4.4-4.4V169c0-2.4,2-4.4,4.4-4.4h27c2.4,0,4.4,2,4.4,4.4v52.9
		C92.1,224.3,90.1,226.3,87.6,226.3z"/>
	<path id="XMLID_24_" class="st1" d="M222.3,226.3h-27c-2.4,0-4.4-2-4.4-4.4V169c0-2.4,2-4.4,4.4-4.4h27c2.4,0,4.4,2,4.4,4.4v52.9
		C226.8,224.3,224.8,226.3,222.3,226.3z"/>
</g>
<g id="Rechercher" class="st0">
	<path id="XMLID_30_" class="st1" d="M138.8,164.6l-60.1,60.1c-2.2,2.2-5.9,2.2-8.1,0l-12.7-12.7c-2.2-2.2-2.2-5.9,0-8.1l60.1-60.1
		c2.2-2.2,5.9-2.2,8.1,0l12.7,12.7C141,158.7,141,162.3,138.8,164.6z"/>
	<g id="XMLID_29_" class="st1">
		<path id="XMLID_43_" d="M163.7,79.3c22.1,0,40.1,18,40.1,40.1s-18,40.1-40.1,40.1s-40.1-18-40.1-40.1S141.6,79.3,163.7,79.3
			 M163.7,56.3c-34.8,0-63.1,28.2-63.1,63.1s28.2,63.1,63.1,63.1s63.1-28.2,63.1-63.1S198.5,56.3,163.7,56.3L163.7,56.3z"/>
	</g>
</g>
<g id="Zoomer" class="st0">
	<path id="XMLID_35_" class="st1" d="M146.7,115.6h34.5c1.3,0,2.4,1.1,2.4,2.4v2.3c0,1.3-1.1,2.4-2.4,2.4h-34.5
		c-1.3,0-2.4-1.1-2.4-2.4V118C144.2,116.7,145.3,115.6,146.7,115.6z"/>
	<path id="XMLID_34_" class="st1" d="M167.4,102.1v34.5c0,1.3-1.1,2.4-2.4,2.4h-2.3c-1.3,0-2.4-1.1-2.4-2.4v-34.5
		c0-1.3,1.1-2.4,2.4-2.4h2.3C166.3,99.7,167.4,100.8,167.4,102.1z"/>
	<path id="XMLID_32_" class="st1" d="M139,164.6l-60.1,60.1c-2.2,2.2-5.9,2.2-8.1,0L58.1,212c-2.2-2.2-2.2-5.9,0-8.1l60.1-60.1
		c2.2-2.2,5.9-2.2,8.1,0l12.7,12.7C141.2,158.7,141.2,162.4,139,164.6z"/>
	<g id="XMLID_31_" class="st1">
		<path id="XMLID_49_" d="M163.9,79.3c22.1,0,40.1,18,40.1,40.1s-18,40.1-40.1,40.1s-40.1-18-40.1-40.1S141.8,79.3,163.9,79.3
			 M163.9,56.3c-34.8,0-63.1,28.2-63.1,63.1s28.2,63.1,63.1,63.1s63.1-28.2,63.1-63.1S198.7,56.3,163.9,56.3L163.9,56.3z"/>
	</g>
</g>
<g id="Discussion" class="st0">
	<path id="XMLID_40_" class="st1" d="M217.8,172.9c0-1.6-0.5-2.2-1.1-2.2c-0.5,0-8.2,9.1-11.2,13.1c-0.5,0.7-0.5,2.5,0,3.3
		c2.9,3.9,10.4,12.9,11.2,12.9c0.9,0,1.1-1.2,1.1-2.5"/>
	<path id="XMLID_37_" class="st1" d="M71.5,93.4c0-1.6,0.5-2.2,1.1-2.2c0.5,0,8.2,9.1,11.2,13.1c0.5,0.7,0.5,2.5,0,3.3
		c-2.9,3.9-10.4,12.9-11.2,12.9c-0.9,0-1.1-1.2-1.1-2.5"/>
	<path id="XMLID_36_" class="st1" d="M125.1,189.9h89.7c6.6,0,12-5.4,12-12v-24.6c0-6.6-5.4-12-12-12h-89.7c-6.6,0-12,5.4-12,12
		v24.6C113.1,184.5,118.5,189.9,125.1,189.9z"/>
	<path id="XMLID_33_" class="st1" d="M180.4,110H68.2c-6.6,0-12-5.4-12-12V68.3c0-6.6,5.4-12,12-12h112.2c6.6,0,12,5.4,12,12V98
		C192.4,104.6,187,110,180.4,110z"/>
</g>
<g id="Message" class="st0">
	<path id="XMLID_38_" class="st1" d="M214.8,226.3H68.2c-6.6,0-12-5.4-12-12V92c0-6.6,5.4-12,12-12h146.5c6.6,0,12,5.4,12,12v122.3
		C226.8,220.9,221.4,226.3,214.8,226.3z"/>
	<path id="XMLID_41_" class="st4" d="M213.5,74.3c9.2,0,13,3.5,13,7.5c0,3.4-53.1,54.9-76.1,74.8c-4.2,3.6-14.6,3.6-19-0.1
		c-22.8-19.7-74.9-69.8-74.9-74.7c0-5.8,6.8-7.5,14.5-7.5"/>
</g>
<g id="Groupe" class="st0">
	<circle id="XMLID_55_" class="st5" cx="185.2" cy="83.2" r="25.2"/>
	<path id="XMLID_54_" class="st6" d="M215.2,194.8h-61.5c-6.6,0-12-5.4-12-12v-61c0-6.6,5.4-12,12-12h61.5c6.6,0,12,5.4,12,12v61
		C227.2,189.4,221.8,194.8,215.2,194.8z"/>
	<circle id="XMLID_53_" class="st5" cx="141.7" cy="99.3" r="25.2"/>
	<path id="XMLID_52_" class="st6" d="M173.2,211.8h-61.5c-6.6,0-12-5.4-12-12v-61c0-6.6,5.4-12,12-12h61.5c6.6,0,12,5.4,12,12v61
		C185.2,206.4,179.8,211.8,173.2,211.8z"/>
	<circle id="XMLID_47_" class="st5" cx="99" cy="114.6" r="25.2"/>
	<path id="XMLID_46_" class="st6" d="M129.7,226.3H68.2c-6.6,0-12-5.4-12-12v-61c0-6.6,5.4-12,12-12h61.5c6.6,0,12,5.4,12,12v61
		C141.7,220.9,136.3,226.3,129.7,226.3z"/>
</g>
<g id="Profil" class="st0">
	<path id="XMLID_66_" class="st1" d="M226.8,226.3H56.2v-66.8c0-6.6,5.4-12,12-12h146.5c6.6,0,12,5.4,12,12V226.3z"/>
	<ellipse id="XMLID_67_" class="st7" cx="141.5" cy="102.5" rx="49.9" ry="51.3"/>
</g>
<g id="Compte" class="st0">
	<path id="XMLID_60_" class="st1" d="M187.3,226.3H96.1c-6.6,0-12-5.4-12-12v-91.2c0-6.6,5.4-12,12-12h91.2c6.6,0,12,5.4,12,12v91.2
		C199.3,220.9,193.9,226.3,187.3,226.3z"/>
	<circle id="XMLID_63_" class="st2" cx="141.7" cy="153.6" r="19.4"/>
	<ellipse id="XMLID_65_" class="st8" cx="141.7" cy="134.2" rx="42.9" ry="59.2"/>
	<path id="XMLID_64_" class="st2" d="M146,212.8h-8.5c-2.5,0-4.6-2.1-4.6-4.6v-36.3c0-2.5,2.1-4.6,4.6-4.6h8.5
		c2.5,0,4.6,2.1,4.6,4.6v36.3C150.6,210.8,148.5,212.8,146,212.8z"/>
</g>
<g id="Ordonner">
</g>
</svg>
